# xmcd
#
# Track frame offsets: 
#        150
#        16991
#        32470
#        47723
#        65329
#        82016
#        97404
#        112073
#        130143
#        157158
#        172201
#        185549
#
# Disc length: 2665 seconds
#
# Revision: 0
# Processed by: cddbd v1.5.2PL0 Copyright (c) Steve Scherf et al.
# Submitted via: ExactAudioCopy v1.0b3
#
DISCID=aa0a670c
DTITLE=Бутырка - Бутырка: Альбом № 1
DYEAR=2002
DGENRE=Шансон
TTITLE0=Тает Снег
TTITLE1=По Этапу
TTITLE2=Покатилась Жизнь
TTITLE3=Запах Воска
TTITLE4=Отсижу За Чужие Грехи
TTITLE5=Дорожки
TTITLE6=Бандероль
TTITLE7=Быть Вором
TTITLE8=Загуляем Осень
TTITLE9=Кресты
TTITLE10=Без Баб И Водки
TTITLE11=Недопел, Недолюбил
EXTD=
EXTT0=
EXTT1=
EXTT2=
EXTT3=
EXTT4=
EXTT5=
EXTT6=
EXTT7=
EXTT8=
EXTT9=
EXTT10=
EXTT11=
PLAYORDER=
